Coordinates
version=1
nRows=42
nColumns=38
inDegrees=no

Units are S.I. units (second, meters, Newtons, ...)
If the header above contains a line with 'inDegrees', this indicates whether rotational values are in degrees (yes) or radians (no).

endheader
time	pelvis_tilt	pelvis_list	pelvis_rotation	pelvis_tx	pelvis_ty	pelvis_tz	hip_flexion_r	hip_adduction_r	hip_rotation_r	knee_angle_r	ankle_angle_r	subtalar_angle_r	mtp_angle_r	hip_flexion_l	hip_adduction_l	hip_rotation_l	knee_angle_l	ankle_angle_l	subtalar_angle_l	mtp_angle_l	lumbar_extension	lumbar_bending	lumbar_rotation	arm_flex_r	arm_add_r	arm_rot_r	elbow_flex_r	pro_sup_r	wrist_flex_r	wrist_dev_r	arm_flex_l	arm_add_l	arm_rot_l	elbow_flex_l	pro_sup_l	wrist_flex_l	wrist_dev_l
10	0.604809	1.44708	0.956284	0.762889	0.134097	0.999457	0.0927196	0.00293725	-0.209092	0.176351	0.083589	0	0	-0.0033316	-0.0966443	-0.192238	0	0.00462355	0	0	0.00424433	0.115353	0.0329811	0.119619	-0.235269	0.114853	0.248179	1.43906	0	0	0.164737	-0.194948	0.260846	0.244613	1.5708	0	0
10.01	0.613527	1.44857	0.947475	0.762845	0.134318	0.999544	0.0897926	0.00300363	-0.208625	0.17501	0.0836315	0	0	-0.00536541	-0.0966693	-0.192057	0	0.00530605	0	0	0.00350238	0.115266	0.0324029	0.120298	-0.235368	0.11397	0.245858	1.44367	0	0	0.163828	-0.193551	0.258941	0.241941	1.5708	0	0
10.02	0.622123	1.45001	0.938516	0.762812	0.134482	0.999603	0.0871441	0.00298634	-0.208092	0.174061	0.0840591	0	0	-0.00731509	-0.0966821	-0.191902	0	0.0058704	0	0	0.00246866	0.115158	0.0322391	0.121063	-0.235555	0.11377	0.243549	1.44675	0	0	0.162926	-0.192324	0.257493	0.239926	1.5708	0	0
10.03	0.630622	1.45153	0.929578	0.762776	0.134634	0.999639	0.0843574	0.00292109	-0.20735	0.172899	0.0842795	0	0	-0.00931857	-0.096641	-0.191976	0	0.0066108	0	0	0.00130805	0.114896	0.0320515	0.122508	-0.235213	0.111023	0.240003	1.45593	0	0	0.162777	-0.19052	0.252452	0.235845	1.5708	0	0
10.04	0.63735	1.45295	0.922172	0.762781	0.134737	0.999628	0.0820213	0.00274112	-0.206418	0.172091	0.0847351	0	0	-0.0113236	-0.0964545	-0.19205	0	0.00728657	0	0	0.00024113	0.114311	0.0322656	0.123417	-0.235205	0.114048	0.237625	1.4558	0	0	0.162213	-0.189469	0.251095	0.233714	1.5708	0	0
10.05	0.643838	1.45419	0.91501	0.762811	0.134806	0.999596	0.0798435	0.00271621	-0.20554	0.171053	0.0850434	0	0	-0.0133137	-0.0963237	-0.192091	0	0.00802453	0	0	-0.00068717	0.113674	0.0326786	0.124364	-0.235061	0.117344	0.234821	1.45595	0	0	0.161703	-0.188629	0.249847	0.231896	1.5708	0	0
10.06	0.649791	1.45529	0.908356	0.762852	0.134837	0.999564	0.0779131	0.00270987	-0.204857	0.170046	0.0854139	0	0	-0.0150858	-0.0962097	-0.192486	0	0.00874012	0	0	-0.00158103	0.112957	0.0334227	0.125066	-0.234851	0.11951	0.232363	1.45584	0	0	0.161512	-0.187917	0.24902	0.229918	1.5708	0	0
10.07	0.656688	1.45611	0.90091	0.762876	0.134838	0.999537	0.0759702	0.00299143	-0.204459	0.168531	0.085455	0	0	-0.0166105	-0.0963667	-0.193092	0	0.00939841	0	0	-0.00235364	0.112486	0.0341212	0.125622	-0.234633	0.121266	0.230083	1.4552	0	0	0.16177	-0.18704	0.248484	0.22728	1.5708	0	0
10.08	0.664563	1.45653	0.892724	0.762881	0.134809	0.999498	0.0742101	0.00366175	-0.204368	0.166827	0.08526	0	0	-0.0179698	-0.0968433	-0.193378	0	0.0098986	0	0	-0.00285613	0.112405	0.0345289	0.126238	-0.234431	0.122842	0.227786	1.45436	0	0	0.161904	-0.186236	0.247908	0.224826	1.5708	0	0
10.09	0.672843	1.45656	0.8842	0.762892	0.134743	0.999442	0.0728677	0.00458851	-0.204647	0.165332	0.0852217	0	0	-0.0191322	-0.0975647	-0.193445	0	0.0101698	0	0	-0.00311432	0.112706	0.034789	0.126923	-0.2343	0.124423	0.225569	1.45336	0	0	0.161773	-0.185593	0.247466	0.222954	1.5708	0	0
10.1	0.686445	1.45801	0.872853	0.762915	0.134411	0.999377	0.0715206	0.00925646	-0.198429	0.165781	0.0806064	0	0	-0.0140081	-0.0982308	-0.191012	0	0.0099064	0	0	-0.0050705	0.112118	0.0337985	0.12817	-0.233929	0.128281	0.222507	1.45161	0	0	0.162611	-0.185116	0.246128	0.220987	1.5708	0	0
10.11	0.689154	1.45611	0.867358	0.762912	0.134513	0.999368	0.0709374	0.00666686	-0.204907	0.162629	0.0845834	0	0	-0.0210981	-0.0993006	-0.193607	0	0.0102328	0	0	-0.00348302	0.113946	0.0348058	0.129154	-0.234169	0.130643	0.22016	1.45109	0	0	0.161356	-0.184301	0.245295	0.219281	1.5708	0	0
10.12	0.69835	1.45751	0.860301	0.762924	0.134097	0.999329	0.0706445	0.0107871	-0.19839	0.164434	0.0802784	0	0	-0.014651	-0.0997953	-0.191851	0	0.0101661	0	0	-0.00530336	0.113055	0.0339334	0.130011	-0.2338	0.134551	0.218058	1.44911	0	0	0.162094	-0.183985	0.244374	0.218032	1.5708	0	0
10.13	0.700853	1.45722	0.857291	0.762938	0.133893	0.999314	0.0709389	0.0111872	-0.197797	0.164452	0.0802838	0	0	-0.0145783	-0.100297	-0.192631	0	0.0101429	0	0	-0.00533003	0.113264	0.0341873	0.130621	-0.233809	0.138037	0.216721	1.44653	0	0	0.161942	-0.18353	0.24349	0.216927	1.5708	0	0
10.14	0.701479	1.45691	0.856078	0.762965	0.133675	0.999288	0.0714081	0.0114944	-0.196789	0.164393	0.0796112	0	0	-0.0143312	-0.100642	-0.193342	0	0.0100732	0	0	-0.00542657	0.113161	0.0350098	0.132048	-0.23228	0.123104	0.213069	1.46696	0	0	0.16213	-0.183311	0.244356	0.216081	1.5708	0	0
10.15	0.701989	1.45668	0.85518	0.762989	0.133461	0.999265	0.0717203	0.011751	-0.196167	0.164255	0.0792686	0	0	-0.0140943	-0.100924	-0.193707	0	0.00997091	0	0	-0.00549391	0.112986	0.0353335	0.132047	-0.231935	0.122995	0.212612	1.46673	0	0	0.162187	-0.183241	0.244427	0.215312	1.5708	0	0
10.16	0.702478	1.45639	0.854406	0.763028	0.133257	0.999259	0.072058	0.0120254	-0.195879	0.16406	0.0792817	0	0	-0.0137709	-0.101201	-0.194013	0	0.00981954	0	0	-0.0054936	0.112811	0.0356195	0.1315	-0.231687	0.122585	0.21297	1.46662	0	0	0.162253	-0.183345	0.244691	0.214742	1.5708	0	0
10.17	0.702778	1.45602	0.853747	0.763078	0.13302	0.999275	0.0725245	0.0122832	-0.19551	0.163785	0.0791664	0	0	-0.0133324	-0.101515	-0.194571	0	0.00984192	0	0	-0.00551318	0.112691	0.0359949	0.130706	-0.231545	0.121663	0.213982	1.46683	0	0	0.16247	-0.183519	0.244954	0.214072	1.5708	0	0
10.18	0.703698	1.45555	0.852273	0.763128	0.132767	0.999292	0.0730917	0.0126588	-0.195419	0.163591	0.0788455	0	0	-0.0128724	-0.101988	-0.195251	0	0.00976576	0	0	-0.0055703	0.112759	0.0365148	0.129966	-0.231524	0.120488	0.215143	1.46735	0	0	0.162817	-0.183684	0.245	0.212996	1.5708	0	0
10.19	0.705187	1.45497	0.85023	0.763188	0.132534	0.999306	0.0733257	0.0133209	-0.195175	0.162745	0.0781062	0	0	-0.0123907	-0.102586	-0.195801	0	0.00956188	0	0	-0.00549244	0.11302	0.0369858	0.129262	-0.231557	0.119601	0.216105	1.46818	0	0	0.163024	-0.183865	0.244785	0.212085	1.5708	0	0
10.2	0.706295	1.45441	0.848514	0.763245	0.13231	0.99933	0.0735474	0.0139559	-0.194907	0.161848	0.0775209	0	0	-0.0118905	-0.103086	-0.196287	0	0.00923479	0	0	-0.00533455	0.113342	0.0373799	0.128716	-0.231543	0.118871	0.216836	1.46919	0	0	0.163105	-0.184048	0.244161	0.211322	1.5708	0	0
10.21	0.706601	1.45395	0.847486	0.763295	0.132093	0.999367	0.0738013	0.0144236	-0.194546	0.161012	0.0769885	0	0	-0.0114606	-0.10341	-0.196856	0	0.00892676	0	0	-0.0051778	0.113649	0.0377985	0.128415	-0.231444	0.11788	0.217167	1.47	0	0	0.163059	-0.184157	0.243224	0.210756	1.5708	0	0
10.22	0.706366	1.45358	0.846834	0.763358	0.131873	0.999418	0.0740411	0.0147821	-0.193998	0.160173	0.076416	0	0	-0.0110656	-0.103671	-0.197683	0	0.00855699	0	0	-0.00507015	0.11392	0.0384276	0.128503	-0.231295	0.117491	0.216624	1.47085	0	0	0.163025	-0.184219	0.242466	0.210123	1.5708	0	0
10.23	0.706072	1.45334	0.846126	0.763423	0.131654	0.999462	0.0741517	0.0150949	-0.193103	0.159158	0.0755622	0	0	-0.0107902	-0.103872	-0.198563	0	0.00832427	0	0	-0.00507747	0.114159	0.0392117	0.128908	-0.23113	0.118386	0.215408	1.47144	0	0	0.163005	-0.184265	0.242117	0.209479	1.5708	0	0
10.24	0.70705	1.45348	0.844241	0.763494	0.131421	0.999501	0.0738507	0.0152743	-0.192223	0.158112	0.0745193	0	0	-0.0109474	-0.103927	-0.19943	0	0.00816325	0	0	-0.00477336	0.114549	0.0377506	0.122931	-0.240356	0.225731	0.232119	1.33172	0	0	0.161361	-0.184628	0.23762	0.209601	1.5708	0	0
10.25	0.70532	1.45348	0.844771	0.763539	0.131225	0.999518	0.074079	0.0151772	-0.191057	0.157599	0.0738585	0	0	-0.0108615	-0.103739	-0.200515	0	0.00800472	0	0	-0.00547308	0.114252	0.0404632	0.128712	-0.23208	0.137498	0.216006	1.45043	0	0	0.162623	-0.184401	0.24078	0.208808	1.5708	0	0
10.26	0.704762	1.45364	0.844148	0.763618	0.131024	0.999524	0.0741727	0.0151246	-0.189976	0.157407	0.0739392	0	0	-0.0110072	-0.103609	-0.201448	0	0.00788202	0	0	-0.00573874	0.114152	0.0414182	0.128893	-0.231808	0.139893	0.215289	1.44821	0	0	0.162579	-0.184498	0.240493	0.208439	1.5708	0	0
10.27	0.705008	1.45391	0.842778	0.763697	0.130839	0.999527	0.0741066	0.0150916	-0.188983	0.157213	0.0739642	0	0	-0.0113329	-0.10349	-0.202267	0	0.00782564	0	0	-0.00616934	0.113984	0.0423249	0.128954	-0.231439	0.142276	0.21474	1.44638	0	0	0.162804	-0.184429	0.239905	0.207247	1.5708	0	0
10.28	0.705422	1.45429	0.841255	0.763765	0.13065	0.999521	0.0740415	0.014938	-0.188258	0.157223	0.073939	0	0	-0.011746	-0.103283	-0.203099	0	0.00786325	0	0	-0.00671415	0.113699	0.0430998	0.129126	-0.230916	0.144118	0.214206	1.44437	0	0	0.163221	-0.184222	0.238898	0.20538	1.5708	0	0
10.29	0.706644	1.4547	0.8389	0.763825	0.130469	0.999507	0.0739869	0.0147922	-0.187661	0.157404	0.0738652	0	0	-0.0122444	-0.103144	-0.203999	0	0.00821704	0	0	-0.00735552	0.113505	0.0438061	0.129333	-0.230453	0.146465	0.213758	1.44201	0	0	0.163274	-0.184134	0.237499	0.204218	1.5708	0	0
10.3	0.70952	1.45511	0.834907	0.763893	0.130304	0.999502	0.073841	0.0148299	-0.187025	0.15771	0.0738442	0	0	-0.0129415	-0.103197	-0.204573	0	0.00850161	0	0	-0.00812082	0.113496	0.0444931	0.129563	-0.23012	0.149174	0.213411	1.4394	0	0	0.163046	-0.184161	0.236045	0.203868	1.5708	0	0
10.31	0.713505	1.45547	0.829805	0.763971	0.13016	0.9995	0.0735451	0.0150106	-0.186083	0.157894	0.0741897	0	0	-0.0137051	-0.103383	-0.20505	0	0.00871087	0	0	-0.00887288	0.113674	0.0452115	0.12969	-0.229945	0.151848	0.213267	1.43633	0	0	0.163105	-0.183941	0.234735	0.202817	1.5708	0	0
10.32	0.718683	1.45583	0.823681	0.764019	0.130032	0.99951	0.0730887	0.0152554	-0.185426	0.158054	0.074542	0	0	-0.0145208	-0.10366	-0.205427	0	0.00898291	0	0	-0.00972904	0.114017	0.0457808	0.129864	-0.229894	0.154147	0.213111	1.43332	0	0	0.163357	-0.183579	0.233613	0.201529	1.5708	0	0
10.33	0.724201	1.4562	0.817381	0.764048	0.129897	0.999535	0.0725521	0.0154956	-0.185	0.158173	0.0746444	0	0	-0.0153159	-0.103941	-0.205722	0	0.00922409	0	0	-0.0106108	0.114404	0.0460131	0.130371	-0.229867	0.156463	0.212362	1.4316	0	0	0.163531	-0.183228	0.232425	0.20031	1.5708	0	0
10.34	0.729215	1.45656	0.81176	0.764055	0.129756	0.999566	0.0720476	0.0156702	-0.184849	0.15827	0.0745804	0	0	-0.0160354	-0.104164	-0.205861	0	0.00938169	0	0	-0.0114149	0.114772	0.0459283	0.131011	-0.22975	0.158802	0.211391	1.42988	0	0	0.163514	-0.182963	0.231547	0.19939	1.5708	0	0
10.35	0.732753	1.45684	0.807433	0.764071	0.129627	0.999584	0.0717483	0.0157771	-0.184367	0.158344	0.0745008	0	0	-0.0166346	-0.104304	-0.206363	0	0.00945864	0	0	-0.0120407	0.115059	0.0459976	0.131677	-0.229529	0.161129	0.210433	1.4276	0	0	0.163433	-0.182737	0.230863	0.198463	1.5708	0	0
10.36	0.73638	1.45708	0.802799	0.764132	0.129499	0.999603	0.0716469	0.0159368	-0.183656	0.158831	0.0745335	0	0	-0.017236	-0.104482	-0.207057	0	0.00946785	0	0	-0.0126502	0.115356	0.0461166	0.132534	-0.229223	0.164448	0.209401	1.42542	0	0	0.163414	-0.182441	0.229671	0.197043	1.5708	0	0
10.37	0.740282	1.45739	0.79801	0.7642	0.129349	0.999641	0.0714633	0.0160738	-0.182982	0.159298	0.0746523	0	0	-0.0178625	-0.104623	-0.207423	0	0.00944659	0	0	-0.0135122	0.115576	0.0460349	0.133994	-0.228639	0.168341	0.207575	1.42229	0	0	0.163647	-0.182185	0.22845	0.195448	1.5708	0	0
10.38	0.741618	1.45766	0.795678	0.764264	0.129184	0.999662	0.071615	0.016002	-0.182344	0.15981	0.0749943	0	0	-0.0182332	-0.104567	-0.208049	0	0.00951864	0	0	-0.0142468	0.115532	0.0462432	0.136661	-0.226869	0.158913	0.203167	1.43648	0	0	0.164081	-0.182084	0.229205	0.193958	1.5708	0	0
10.39	0.741943	1.45777	0.794305	0.76433	0.129006	0.999656	0.0720108	0.0159917	-0.181658	0.160328	0.0751927	0	0	-0.0183799	-0.104565	-0.208803	0	0.00956272	0	0	-0.014743	0.11554	0.0461009	0.138937	-0.226007	0.160852	0.200334	1.43681	0	0	0.164401	-0.181904	0.228809	0.192228	1.5708	0	0
10.4	0.741265	1.45773	0.793798	0.764406	0.128822	0.999634	0.0725678	0.0160435	-0.180802	0.160682	0.0752422	0	0	-0.0183195	-0.104577	-0.209686	0	0.00956324	0	0	-0.0150947	0.115568	0.0459726	0.141175	-0.22519	0.162937	0.19763	1.4357	0	0	0.164311	-0.181898	0.228254	0.191373	1.5708	0	0
10.41	0.740184	1.45763	0.793878	0.764476	0.128605	0.999625	0.073125	0.0161202	-0.180146	0.160819	0.0752023	0	0	-0.0180941	-0.104577	-0.210365	0	0.00949203	0	0	-0.0155253	0.115578	0.0455908	0.14334	-0.224411	0.164848	0.195335	1.43338	0	0	0.164304	-0.181932	0.227882	0.190656	1.5708	0	0
